<svg xmlns="http://www.w3.org/2000/svg" viewBox="0 0 52.916665 52.91667">
  <g transform="translate(-74.250741,-94.343912)">
    <path fill="#000" d="m 106.47235,147.26064 c 2.66426,-1.06794 5.76043,-1.49282 7.91784,-3.55263 -1.37425,0.37508 -4.62876,2.46032 -4.67812,1.9016 2.15272,-1.24419 4.58224,-2.28289 6.22115,-4.22973 0.92112,-1.16343 4.60514,-4.55644 3.97539,-4.60609 -2.27296,3.05619 -5.77417,4.67971 -8.98008,6.46833 -0.21533,0.0993 3.11455,-2.33163 0.45157,-0.87919 -0.96094,0.54922 -4.14295,2.1603 -2.03233,0.64325 -0.80082,0.12623 -4.65281,2.05617 -2.27648,0.40476 1.78048,-1.21669 5.05602,-3.1555 5.80207,-4.09027 -1.36094,0.74523 -3.99482,2.75993 -4.81114,1.83576 1.00416,-0.59768 4.39084,-2.6401 3.53628,-2.64854 -0.84459,0.42143 -3.64539,2.50935 -3.56614,1.66348 0.8606,-0.43084 3.65668,-2.70901 1.07894,-1.33126 -0.78777,0.56169 -3.99918,1.75238 -1.43587,0.38918 3.3459,-2.58822 6.5443,-5.59899 8.6908,-9.32903 3.60669,-7.02399 2.49436,-16.19319 -2.27066,-22.35195 -4.73704,-5.42552 -13.19116,-6.37477 -19.262522,-2.84972 -4.0638,1.80445 -7.8086,5.15942 -8.9105,9.71635 -1.24575,3.04625 -0.21401,-1.77117 0.47401,-2.5744 1.70975,-3.64988 5.0017,-6.25928 8.6053,-7.70306 1.32395,-0.99019 4.52576,-1.7945 4.9776,-2.35663 -1.7949,0.71957 -4.035,0.44594 -5.38263,0.25389 0.94038,-0.70629 3.46376,-1.17453 1.56033,-1.36913 0.14234,-1.226117 -3.00074,0.85172 -3.95584,1.30618 -3.32872,2.08544 -5.93732,5.23406 -7.78089,8.73597 1.69989,-2.15973 3.12256,-5.31818 5.64726,-6.26425 -0.49407,0.74832 -0.97831,2.00698 0.21404,0.88589 -2.0118,2.50815 -3.94501,5.11561 -5.79197,7.73826 -0.95906,2.31019 -1.63937,4.47886 -0.38167,6.52792 -0.0996,1.27026 0.75935,6.15187 -0.19527,2.46406 -0.6595,-0.25678 0.30027,3.5928 1.12542,4.36151 1.1447,2.13211 1.56394,4.37933 3.50423,5.78485 -2.23367,0.25104 -3.59427,-3.92471 -4.63137,-3.02119 -0.90299,-1.67263 -1.56116,-0.96771 -0.48918,0.37135 1.57704,2.73569 3.76576,5.33618 6.90174,6.0651 -0.52127,-0.83358 2.20369,0.70829 3.20251,0.30255 2.9727,0.25801 6.12352,3.412 4.88008,6.62323 -1.82103,3.31326 -6.5778,3.66991 -9.59806,1.97647 -4.05121,-3.12091 -8.14792,-6.43447 -11.03559,-10.76027 -2.49987,-4.05962 -3.83348,-8.9313 -3.45978,-13.74217 0.35498,3.24522 0.5464,6.65828 2.16908,9.55509 -1.0415,-3.66493 -2.08558,-7.4859 -1.41548,-11.32709 0.382,-3.35625 1.64815,-6.6067 2.98769,-9.65263 0.28243,0.0776 -0.7273,2.33297 0.34616,0.33146 1.3885,-2.89387 -0.9231,3.00585 0.81442,0.63117 -0.24696,0.90576 1.64029,-0.57529 0.41543,1.09183 -0.32319,1.42492 -1.6429,3.26545 -1.08925,4.5452 -0.009,-1.1819 2.40064,-5.69139 1.5772,-2.27268 0.33261,0.36332 1.885,-3.49489 2.96345,-4.44846 -0.0468,0.11858 -2.36594,4.65561 -1.06558,3.65581 0.71411,-2.00922 2.95327,-5.41214 3.32476,-6.19188 -0.0758,-0.73425 2.90866,-2.97112 4.2599,-3.80356 2.65442,-1.52284 5.78287,-2.07673 8.22132,-4.011833 8.524672,-1.609722 17.356322,2.810753 22.661882,9.593973 -1.59869,-3.27355 -4.08493,-6.12183 -7.19605,-7.936238 0.73178,-0.29822 3.56458,1.814618 5.22784,1.795878 3.01832,1.76222 4.72212,5.15839 6.18359,8.26799 2.53999,5.95987 3.34968,12.85074 1.33398,19.10069 -0.80952,3.39008 -2.0949,6.70124 -4.38793,9.33558 -1.54894,2.03849 -3.23791,3.91277 -5.47769,5.14466 -2.79096,2.17597 -6.25788,3.32382 -9.69519,3.83461 z m 7.5044,-10.28324 c 2.05124,-2.06073 -2.47049,1.84156 0,0 z m -1.68746,-0.32407 c 1.79307,-2.01532 -1.75994,1.57078 -0.0432,0.0438 z M 78.794048,111.54268 c 0.88601,-1.22517 -0.25936,-0.86471 0,0 z m 5.52619,-1.22521 c 0.99249,-2.03282 -1.32767,1.80862 -0.0174,0.0298 z m 30.201522,-3.49349 c -0.7357,-1.26301 -2.84921,-2.02036 0,0 z m 0.50859,-2.65903 c -2.4884,-3.21895 -6.62296,-4.06117 -10.2884,-5.027266 -1.21758,-0.451586 -3.46212,0.117585 -0.94485,0.357313 3.47397,0.573803 6.93307,1.638463 9.75707,3.870193 0.47684,0.29464 0.9636,0.57551 1.47618,0.79976 z m -21.114232,-3.40104 c 2.4976,-1.555959 -3.25141,1.36054 -0.31825,0.16014 z m 19.483432,32.15136 c 2.53446,-3.50854 4.38493,-7.82272 3.84167,-12.27981 0.10887,-3.29082 0.56312,1.82897 0.29424,2.69725 -0.34907,3.48057 -1.59724,7.12566 -4.08739,9.55706 z m -28.035922,-7.18806 c -0.29633,-0.53085 0.72921,0.18663 0,0 z m 32.734322,-5.52274 c -0.39493,-2.53861 0.46824,-1.09085 0.0871,0.56082 z m -0.89306,-1.96022 c -0.4129,-1.23526 -0.43463,-3.08089 0.14213,-0.83042 0.16564,0.23386 0.30818,0.81667 -0.14213,0.83042 z m -41.253202,-8.61776 c 0.91155,-1.58156 1.33348,0.59348 0,0 z m -0.0838,-0.38779 c -0.15166,-0.60252 0.38644,0.70483 0,0 z m 0.25155,0.0144 c 0.24605,-0.34975 0.21103,0.32903 0,0 z m 6.79168,-4.741 c 1.56184,-1.58996 2.98675,-3.70771 5.12207,-4.44799 -1.64383,1.55613 -3.25985,3.16388 -5.12207,4.44799 z m -0.19409,-1.52396 c -0.35795,-1.46563 2.34323,-1.74837 0.70784,-0.36668 -0.007,0.19323 -0.54017,0.83826 -0.70784,0.36668 z m -8.06434,-2.10737 c 0.21874,-0.19521 0.18366,0.43268 0,0 z m 14.25356,-1.528976 c 0.56305,-0.619186 1.91402,-0.992376 0.45669,-0.155322 z m 8.42673,-2.150097 c 0.85294,-0.608961 4.871822,-0.79857 1.96404,-0.28238 -0.14841,-0.0299 -2.89996,0.802461 -1.96404,0.28238 z m -2.1582,-0.913511 c 1.07126,-0.73531 2.77596,-0.43791 0.64594,-0.18355 -0.2088,0.0622 -0.40414,0.39934 -0.64594,0.18355 z m 4.82037,-0.123561 c 0.805482,-1.062251 4.687742,-0.0534 1.558002,-0.173289 -0.52647,-4.5e-4 -1.02749,0.24601 -1.558002,0.173289 z m -0.10062,-0.96743 c 0.616722,-1.212531 4.800122,-1.038331 3.457432,-0.0697 -1.15185,0.0504 -2.31372,-0.14546 -3.457432,0.0697 z"/>
  </g>
</svg>
